<?xml version="1.0" standalone="no"?>
<!DOCTYPE svg PUBLIC "-//W3C//DTD SVG 20010904//EN"
 "http://www.w3.org/TR/2001/REC-SVG-20010904/DTD/svg10.dtd">
<svg version="1.0" xmlns="http://www.w3.org/2000/svg"
 width="640.000000pt" height="640.000000pt" viewBox="0 0 640.000000 640.000000"
 preserveAspectRatio="xMidYMid meet">

<g transform="translate(0.000000,640.000000) scale(0.100000,-0.100000)"
fill="#000000" stroke="none">
<path d="M2 6369 c3 -31 6 -33 123 -73 66 -23 156 -61 200 -84 l81 -42 -3 -47
c-5 -82 -9 -107 -22 -131 -7 -13 -16 -53 -21 -90 -5 -37 -14 -89 -19 -117 -5
-27 -16 -88 -24 -135 -9 -47 -20 -99 -25 -116 -5 -17 -8 -43 -5 -58 3 -15 1
-26 -6 -26 -6 0 -10 -3 -9 -7 0 -5 -1 -15 -5 -23 -5 -14 -11 -44 -21 -110 -7
-43 -47 -173 -66 -216 -11 -23 -29 -70 -40 -105 -20 -58 -20 -65 -6 -98 8 -20
18 -47 22 -60 6 -23 6 -23 -17 -7 -48 33 -57 23 -51 -53 4 -66 3 -70 -15 -65
-17 5 -21 -1 -27 -37 -4 -23 -9 -39 -13 -35 -3 3 -13 -3 -20 -14 -12 -16 -14
-73 -12 -293 1 -149 6 -277 11 -284 5 -7 5 -14 -2 -18 -7 -4 -10 -193 -10
-588 l0 -582 63 -57 c55 -49 147 -118 181 -134 6 -3 -12 16 -40 43 -28 26 -55
58 -58 71 -4 12 -12 22 -17 22 -6 0 -7 -6 -3 -12 3 -7 -5 1 -19 17 -38 45 -51
72 -42 92 5 12 9 14 12 6 3 -7 11 -13 18 -13 21 0 30 21 14 32 -10 6 -7 7 9 3
20 -6 22 -4 16 19 -5 20 -2 26 10 26 9 0 16 -6 16 -13 0 -13 11 -28 69 -92 14
-16 51 -70 80 -120 30 -49 65 -107 78 -128 32 -51 35 -91 8 -92 -37 -3 -64
-17 -58 -30 3 -9 -7 -17 -28 -23 -32 -8 -36 -6 -87 54 -45 53 -124 114 -147
114 -16 0 21 -41 83 -90 38 -30 75 -64 82 -75 12 -19 12 -19 -7 -3 -25 23 -51
25 -33 3 7 -9 11 -18 8 -20 -3 -3 -10 5 -17 18 -7 12 -30 33 -52 46 -21 14
-41 32 -44 42 -3 9 -14 24 -25 34 -11 10 -20 29 -20 42 0 12 -4 23 -10 23 -5
0 -10 5 -10 10 0 6 7 7 18 1 9 -5 36 -18 60 -30 23 -12 42 -19 42 -14 -1 13
-87 103 -99 103 -6 0 -11 8 -11 18 0 11 -9 27 -19 36 -19 17 -19 14 -20 -190
l-1 -207 43 -41 c24 -23 57 -50 73 -61 46 -32 103 -97 97 -111 -8 -20 -35 -6
-80 44 -24 25 -45 43 -48 40 -3 -2 7 -28 21 -57 14 -29 24 -54 22 -56 -2 -1
-24 -5 -49 -9 -35 -5 -49 -3 -58 8 -7 8 -10 20 -7 25 4 5 2 12 -4 16 -7 4 -10
-350 -10 -1089 l0 -1096 834 0 833 0 8 52 c8 64 8 60 1 178 -4 52 -8 112 -9
133 -2 37 -11 49 -20 25 -2 -7 -4 1 -5 17 -1 17 -5 58 -9 93 -5 34 -6 68 -2
74 4 7 5 16 2 22 -9 13 -4 88 13 236 9 69 16 137 16 153 1 15 4 27 8 27 4 0 8
26 8 58 1 31 4 101 6 156 3 54 0 109 -5 123 -5 13 -11 38 -14 56 -3 18 -10 57
-15 87 -5 30 -10 73 -11 95 -1 22 -7 54 -14 70 -7 17 -16 52 -20 79 -5 38 -15
58 -42 85 -41 40 -48 64 -63 206 -15 140 -36 246 -69 345 -25 76 -42 128 -87
277 l-13 42 56 26 c30 14 57 25 58 25 1 0 13 -33 26 -72 13 -40 36 -100 52
-133 16 -33 47 -109 68 -170 59 -174 60 -175 86 -171 12 3 27 7 33 11 13 8 13
190 0 420 -6 99 -7 200 -3 225 8 43 11 46 58 61 94 30 105 31 105 12 1 -17 1
-17 14 0 8 10 20 20 28 21 7 2 27 8 43 15 17 7 65 16 108 21 43 5 82 12 87 15
18 11 10 30 -20 47 -17 9 -30 24 -30 32 0 17 -49 46 -76 46 -10 0 -15 2 -12 5
9 9 138 -7 133 -16 -3 -4 4 -10 15 -14 11 -4 19 -9 16 -13 -2 -4 0 -16 5 -27
6 -15 8 -16 8 -4 1 16 28 29 63 29 10 0 18 -3 17 -7 -2 -13 13 -53 20 -53 16
0 32 -64 29 -116 -3 -59 14 -86 26 -42 6 21 8 20 25 -17 11 -22 20 -34 20 -27
1 6 7 12 15 12 8 0 24 12 36 27 16 20 23 24 32 15 7 -7 20 -12 30 -12 12 0 26
-18 43 -55 16 -36 30 -55 42 -56 10 0 14 -2 8 -5 -12 -5 -14 -178 -2 -190 4
-4 7 10 8 32 0 21 4 48 8 59 8 19 9 19 16 -5 8 -24 9 -24 21 15 7 22 13 59 13
83 1 30 5 42 16 42 21 0 19 48 -4 94 -17 32 -19 66 -5 66 8 0 44 -40 43 -47
-3 -21 2 -33 12 -27 6 3 8 17 5 30 -4 13 -2 24 3 24 5 0 12 13 16 30 4 18 13
30 23 30 8 0 24 7 34 17 12 11 18 12 18 3 0 -7 7 -10 15 -6 9 3 15 0 15 -9 0
-8 4 -15 9 -15 4 0 6 -12 3 -26 -4 -20 1 -31 19 -45 21 -15 22 -20 11 -41 -14
-26 -2 -78 19 -78 6 0 9 -6 6 -14 -4 -10 0 -12 14 -9 14 4 19 0 19 -16 0 -11
5 -21 11 -21 6 0 9 6 6 14 -3 8 4 27 16 43 12 15 21 29 20 30 -2 2 -3 11 -3
21 0 14 2 15 10 2 5 -8 7 -40 3 -71 -3 -34 -1 -64 6 -77 12 -23 3 -30 -16 -11
-7 7 -11 -8 -13 -53 -6 -101 -3 -150 7 -157 20 -12 43 -71 43 -108 1 -26 3
-33 9 -23 11 19 11 140 0 161 -4 9 -4 20 1 25 10 10 15 121 11 219 -2 33 -12
80 -23 105 -27 63 -30 80 -12 98 12 12 15 12 13 1 -3 -19 11 -49 23 -49 6 0 8
12 5 26 -3 18 -1 24 8 20 31 -12 195 -37 216 -34 31 6 16 11 -87 31 -128 24
-299 114 -363 191 -14 17 -33 38 -41 47 -8 8 -16 21 -17 27 -5 23 20 11 66
-30 41 -37 152 -100 216 -123 33 -12 84 -14 91 -4 7 12 -36 28 -55 21 -9 -3
-12 -1 -7 6 4 7 2 12 -3 12 -6 0 -32 13 -59 30 -60 38 -43 38 39 1 127 -56
326 -77 454 -46 110 26 222 88 293 161 33 35 17 29 -32 -11 -24 -19 -46 -32
-49 -28 -4 3 -7 0 -7 -7 0 -7 -3 -11 -6 -7 -3 3 -14 -3 -25 -14 -10 -10 -24
-19 -31 -19 -6 0 -3 7 8 15 19 15 19 15 0 30 -11 8 -15 15 -9 15 10 0 23 46
28 103 2 24 -2 29 -26 34 -34 7 -37 30 -13 108 18 59 26 97 29 144 2 31 7 37
51 56 47 21 92 57 124 99 14 17 13 18 -8 12 -13 -5 -22 -3 -22 3 0 6 -13 11
-30 11 -20 0 -30 5 -30 15 0 8 -9 19 -21 26 -15 8 -18 14 -10 22 6 6 11 19 11
29 0 10 6 18 14 18 8 0 17 16 21 37 4 21 12 47 18 58 6 11 12 22 12 25 4 21
18 50 25 50 4 0 11 -12 14 -27 17 -71 26 -83 67 -83 48 0 63 24 56 89 -4 38
-1 50 19 74 13 16 24 37 24 47 0 10 3 25 6 34 4 11 1 16 -10 16 -9 0 -16 6
-15 13 2 6 -8 34 -21 60 -19 38 -34 52 -69 68 -24 10 -47 19 -52 19 -5 0 -9
-22 -9 -50 l0 -50 -35 0 c-45 0 -58 20 -89 142 -44 174 -46 258 -6 258 16 0
20 -7 20 -30 0 -16 5 -30 11 -30 6 0 8 -7 5 -16 -9 -24 17 -58 57 -78 38 -17
97 -22 97 -6 0 5 16 17 36 26 35 17 35 18 14 29 -22 12 -22 12 7 23 15 6 41
14 56 18 36 8 43 25 26 64 -11 24 -20 30 -46 30 -18 0 -33 4 -33 9 0 18 53 51
81 51 37 0 39 27 2 41 -18 7 -48 6 -99 -2 -53 -9 -85 -10 -118 -2 -36 8 -50 7
-65 -4 -18 -12 -22 -11 -42 16 -12 16 -30 32 -40 34 -13 4 -19 14 -19 34 0 16
-3 33 -7 37 -11 11 -11 56 0 56 5 0 7 17 5 38 -4 28 0 41 15 55 11 9 27 15 36
12 9 -2 21 -1 26 3 12 8 16 72 5 72 -4 0 -5 11 -2 25 3 20 11 25 36 26 56 3
61 4 74 12 6 5 16 6 20 3 4 -2 14 -1 22 4 9 5 19 5 26 -1 8 -7 14 -7 18 0 4 6
16 6 34 0 25 -8 58 -52 109 -143 7 -11 16 -21 20 -21 4 0 14 -4 21 -8 37 -24
25 101 -17 177 -29 54 -32 100 -6 89 15 -5 19 14 29 116 7 68 23 86 68 77 73
-13 72 -8 32 -226 -19 -107 -37 -232 -39 -278 -3 -46 -7 -87 -10 -92 -3 -6 -9
-54 -12 -107 -5 -96 -5 -98 18 -108 33 -14 37 -43 7 -47 -19 -2 -23 -10 -26
-45 -2 -23 3 -61 9 -85 l13 -43 12 70 13 70 -4 -75 c-5 -95 -21 -201 -36 -233
-6 -14 -20 -28 -30 -30 -31 -8 -25 -54 11 -72 16 -8 36 -15 44 -15 21 0 46 39
46 72 0 26 46 85 58 74 2 -3 7 -29 9 -58 8 -100 37 -122 87 -69 25 26 30 41
36 113 7 76 13 111 27 161 6 24 30 21 44 -5 11 -20 10 -21 -3 -11 -8 7 -18 10
-21 6 -10 -10 -8 -61 2 -68 6 -3 13 -25 16 -49 9 -59 19 -73 39 -57 8 7 18 26
21 42 6 26 43 59 55 48 3 -2 6 15 8 39 5 61 21 51 24 -15 3 -54 5 -58 28 -58
21 0 25 -4 23 -25 -6 -64 -26 -111 -54 -125 -39 -20 -64 -56 -79 -112 -7 -26
-23 -62 -35 -78 -33 -44 -14 -78 52 -94 98 -25 170 -55 234 -96 55 -36 69 -50
82 -87 35 -100 57 -196 55 -243 -2 -50 10 -220 17 -242 2 -7 0 -15 -5 -18 -6
-4 -10 12 -11 37 -1 24 -6 72 -13 108 -9 54 -14 65 -31 65 -14 0 -22 -9 -26
-30 -7 -34 -10 -22 -13 61 -2 28 -5 55 -9 60 -3 6 -7 35 -8 65 -1 30 -5 61 -7
68 -7 19 -31 -91 -31 -146 -1 -23 -4 -48 -7 -57 -13 -33 -24 -2 -24 65 0 38
-4 69 -8 69 -10 0 -32 -68 -32 -99 0 -13 -6 -21 -16 -21 -15 0 -16 9 -10 68
10 87 8 129 -4 153 -20 37 -21 37 -119 -150 -32 -59 -38 -36 -17 59 22 95 21
120 -4 120 -11 0 -20 4 -20 9 0 5 -9 7 -20 4 -11 -3 -28 -2 -37 3 -10 4 -22 8
-26 8 -5 1 -15 9 -22 19 -8 12 -14 14 -17 6 -3 -8 -14 -9 -38 -3 l-35 8 35 6
35 7 -30 12 c-21 9 -36 9 -53 2 -32 -15 -36 -14 -16 6 22 22 0 31 -24 10 -9
-8 -28 -18 -42 -22 -14 -4 -35 -17 -47 -28 -21 -19 -23 -19 -23 -3 0 10 18 36
41 58 38 37 40 41 25 56 -14 14 -21 14 -73 -8 -32 -13 -75 -34 -95 -47 -21
-13 -42 -23 -48 -23 -5 0 -10 -7 -10 -15 0 -8 -9 -19 -20 -25 -11 -6 -20 -8
-20 -4 0 3 -6 1 -14 -5 -7 -6 -21 -9 -30 -5 -11 4 -16 1 -16 -13 0 -10 -4 -23
-9 -29 -5 -5 -11 -26 -13 -47 l-3 -38 80 -35 c44 -20 94 -46 110 -59 17 -12
75 -35 129 -50 147 -39 278 -89 338 -128 135 -87 334 -333 405 -499 15 -35 31
-69 36 -76 5 -6 13 -27 16 -45 5 -22 12 -31 24 -29 24 4 44 -35 51 -103 4 -33
11 -64 16 -69 7 -7 10 -5 10 4 0 7 3 11 6 8 3 -4 0 -16 -6 -28 -9 -16 -9 -25
0 -35 7 -8 10 -19 8 -25 -2 -6 -17 18 -35 52 -20 39 -28 65 -22 69 6 4 4 9 -7
13 -18 7 -18 2 6 -209 55 -476 96 -1508 72 -1823 -8 -96 -8 -151 -1 -169 5
-14 11 -107 12 -205 l2 -178 618 0 617 0 0 1828 c-1 1609 -2 1825 -15 1808
-19 -25 -19 -18 0 27 8 20 15 49 15 65 l0 28 -60 -4 -60 -4 0 30 c0 39 -16 50
-67 46 -54 -3 -59 -7 -67 -49 -8 -42 -23 -45 -32 -7 -8 33 -23 54 -35 46 -13
-7 -11 -41 4 -100 9 -34 10 -61 4 -84 -10 -40 -28 -65 -36 -52 -21 30 -162 55
-177 31 -11 -19 10 -28 84 -35 77 -7 87 -13 77 -43 -4 -13 -29 -24 -91 -39
-46 -12 -95 -22 -107 -22 -13 0 -28 -5 -33 -10 -7 -7 -20 -6 -40 5 -16 8 -37
15 -46 15 -9 0 -29 12 -43 28 -17 17 -23 21 -19 9 6 -16 4 -17 -22 -5 -63 26
-66 37 -29 92 22 32 24 42 16 77 -5 22 -12 43 -15 47 -9 8 -25 -10 -29 -33 -7
-36 -17 -51 -37 -52 -25 -2 -51 28 -31 35 20 7 61 52 61 68 0 7 8 10 19 7 24
-6 46 30 42 72 -1 17 5 39 13 50 14 19 15 17 11 -20 -4 -30 -2 -36 6 -25 29
41 48 106 54 179 l6 80 -50 52 c-49 51 -50 51 -98 45 -140 -19 -146 -19 -155
-2 -14 25 -28 9 -19 -22 13 -44 6 -50 -47 -40 -112 21 -128 28 -144 63 -13 29
-13 36 1 66 9 19 26 38 39 44 26 11 28 23 7 31 -8 4 -15 12 -15 19 0 18 -92
28 -152 17 -52 -10 -56 -2 -9 18 44 18 46 30 50 263 1 98 1 98 36 134 19 20
35 41 35 46 0 5 8 16 18 23 16 13 16 14 -2 7 -13 -4 -17 -3 -12 5 4 7 14 12
22 12 8 0 14 5 14 10 0 6 -7 10 -16 10 -14 0 -14 3 -4 15 16 19 30 19 30 0 0
-18 12 -19 29 -2 7 6 12 8 11 2 -2 -5 -2 -17 -1 -25 3 -27 19 11 26 60 6 43
17 288 15 320 -5 61 7 384 16 433 7 32 -6 35 -31 7 -10 -12 -24 -19 -31 -16
-7 3 -14 0 -16 -6 -8 -23 -26 3 -36 49 -18 82 -33 243 -35 370 -2 67 -5 124
-7 126 -3 2 -29 17 -57 32 -29 16 -53 32 -53 37 0 11 -42 72 -52 76 -5 2 -8
10 -8 18 0 19 -346 21 -353 2 -4 -10 -6 -10 -6 0 -1 8 -25 12 -87 12 l-86 0 7
-112 c3 -62 11 -152 16 -201 5 -48 6 -99 3 -112 -5 -21 -3 -25 16 -25 13 0 19
-4 14 -11 -3 -6 -15 -8 -26 -6 -28 8 -51 -14 -30 -29 12 -9 -1 -13 -62 -23
-42 -6 -85 -11 -94 -11 -29 0 -43 -20 -26 -37 16 -16 19 -53 4 -53 -5 0 -10
-11 -10 -25 0 -14 4 -25 9 -25 11 0 33 -59 23 -61 -4 -1 -10 -1 -14 0 -5 0 -8
-4 -8 -10 0 -6 -7 -9 -15 -5 -8 3 -15 0 -15 -6 0 -9 -3 -9 -11 -1 -6 6 -17 57
-25 114 -14 102 -11 165 7 153 5 -3 9 0 9 6 0 7 -8 9 -20 5 -13 -4 -20 -2 -20
7 -1 7 -7 64 -13 125 -9 77 -9 114 -2 116 6 3 6 9 -2 18 -7 9 -15 59 -19 112
l-7 97 -548 0 c-428 0 -549 -3 -553 -12 -5 -10 -7 -10 -12 0 -4 9 -321 12
-1535 12 l-1530 0 3 -31z m3663 11 c3 -5 2 -10 -4 -10 -5 0 -13 5 -16 10 -3 6
-2 10 4 10 5 0 13 -4 16 -10z m985 -61 c0 -6 -4 -7 -10 -4 -5 3 -10 11 -10 16
0 6 5 7 10 4 6 -3 10 -11 10 -16z m-30 -4 c0 -9 -6 -12 -15 -9 -8 4 -15 1 -15
-7 0 -7 -3 -9 -6 -6 -8 8 14 37 27 37 5 0 9 -7 9 -15z m-45 -45 c3 -5 1 -10
-4 -10 -6 0 -11 5 -11 10 0 6 2 10 4 10 3 0 8 -4 11 -10z m-3361 -129 c76 -13
78 -19 71 -206 -4 -88 -9 -198 -11 -245 -2 -47 -6 -119 -9 -160 -4 -41 -8 -95
-10 -120 -1 -25 -3 -47 -4 -50 -3 -9 -11 -102 -14 -165 -2 -33 -14 -88 -28
-123 -23 -60 -23 -64 -7 -92 16 -29 16 -29 -7 -20 -12 5 -32 6 -44 3 -21 -5
-21 -6 9 -60 17 -30 26 -52 20 -48 -15 9 -5 -30 17 -64 8 -13 10 -20 4 -17 -7
5 -11 -4 -11 -24 0 -20 -4 -30 -12 -28 -17 6 -43 61 -39 85 1 6 -3 14 -9 18
-6 4 -10 -5 -10 -20 0 -17 -4 -25 -12 -22 -7 2 -12 10 -10 16 1 8 -4 8 -18 -1
-14 -9 -18 -19 -13 -38 9 -41 9 -44 -9 -47 -10 -3 -19 4 -23 16 -3 12 -10 21
-15 21 -5 0 -19 18 -31 40 -20 36 -24 38 -35 22 -20 -25 -17 -70 4 -76 9 -3
23 -15 30 -26 10 -17 10 -25 -2 -49 -9 -16 -22 -31 -29 -34 -8 -3 -20 -27 -26
-53 -7 -26 -23 -67 -36 -93 -14 -25 -25 -52 -25 -59 0 -25 -43 -8 -72 29 l-29
36 16 59 c9 33 21 82 27 109 5 28 16 70 24 95 8 25 14 55 14 67 0 24 24 83 51
123 9 14 20 36 24 50 4 14 16 32 25 40 21 18 27 68 16 125 -44 226 -184 668
-268 843 -38 79 -33 85 78 114 139 35 324 47 438 29z m3353 -233 c-2 -13 -4
-3 -4 22 0 25 2 35 4 23 2 -13 2 -33 0 -45z m-790 0 c-3 -8 -6 -5 -6 6 -1 11
2 17 5 13 3 -3 4 -12 1 -19z m866 -128 c3 -11 1 -23 -4 -26 -5 -3 -9 6 -9 20
0 31 6 34 13 6z m-76 -62 c-3 -8 -6 -5 -6 6 -1 11 2 17 5 13 3 -3 4 -12 1 -19z
m-117 -1 c0 -9 -13 -14 -35 -15 -34 -1 -47 11 -22 21 25 11 57 7 57 -6z
m-1033 -50 c7 -5 20 -7 28 -3 9 3 15 0 15 -8 0 -18 -20 -25 -40 -15 -8 4 -23
10 -32 13 -10 3 -18 12 -18 20 0 16 23 12 47 -7z m-87 -17 c0 -5 -4 -10 -10
-10 -5 0 -10 5 -10 10 0 6 5 10 10 10 6 0 10 -4 10 -10z m317 -12 c24 -10 47
-17 52 -14 5 3 12 -1 15 -10 3 -8 10 -12 16 -9 5 3 10 2 10 -3 0 -5 10 -9 23
-8 12 1 35 -8 50 -21 16 -13 33 -21 37 -18 5 3 17 -6 26 -20 12 -19 20 -23 29
-15 9 8 13 4 13 -15 0 -14 -5 -25 -10 -25 -6 0 -8 -7 -4 -15 3 -8 1 -15 -4
-15 -12 0 -35 40 -35 60 0 11 -9 14 -31 12 -25 -2 -37 4 -59 30 -17 20 -30 28
-32 21 -8 -24 -59 -2 -109 45 -8 8 -20 12 -27 9 -6 -2 -17 3 -24 12 -7 9 -13
11 -13 5 0 -16 -50 -14 -50 2 0 19 75 15 127 -8z m393 -28 c0 -23 -4 -30 -20
-30 -11 0 -20 7 -20 16 0 8 4 13 9 10 5 -3 11 3 14 14 8 30 17 24 17 -10z
m-819 7 c-1 -12 -15 -9 -19 4 -3 6 1 10 8 8 6 -3 11 -8 11 -12z m769 -38 c0
-16 -4 -28 -9 -24 -5 3 -12 -4 -16 -15 -3 -11 -11 -20 -16 -20 -14 0 -11 16 6
30 8 7 15 23 15 36 0 13 5 24 10 24 6 0 10 -14 10 -31z m-870 6 c10 -13 9 -15
-9 -15 -12 0 -21 6 -21 15 0 8 4 15 9 15 5 0 14 -7 21 -15z m816 -22 c-10 -10
-19 5 -10 18 6 11 8 11 12 0 2 -7 1 -15 -2 -18z m-892 -8 c3 -8 0 -15 -7 -16
-7 0 -20 -2 -30 -4 -18 -3 -18 -3 -1 16 21 23 30 24 38 4z m1267 -22 c6 -16
13 -50 15 -77 3 -27 7 -53 10 -57 2 -4 0 -10 -6 -14 -17 -11 -35 18 -35 55 1
19 -5 41 -12 48 -15 16 -17 32 -4 32 5 0 7 9 4 20 -8 30 16 24 28 -7z m329
-22 c0 -11 -4 -23 -10 -26 -6 -4 -10 5 -10 19 0 14 5 26 10 26 6 0 10 -9 10
-19z m-70 -27 c0 -8 -4 -12 -10 -9 -5 3 -10 10 -10 16 0 5 5 9 10 9 6 0 10 -7
10 -16z m-571 -64 c-7 -5 -18 -2 -26 5 -19 19 -16 28 7 22 11 -3 21 0 21 6 1
7 3 4 6 -7 3 -10 -1 -22 -8 -26z m-49 -10 c0 -5 -2 -10 -4 -10 -3 0 -8 5 -11
10 -3 6 -1 10 4 10 6 0 11 -4 11 -10z m41 -37 c27 -34 40 -64 32 -76 -5 -8 -9
-3 -13 13 -4 16 -14 26 -28 28 -16 2 -22 10 -22 28 0 28 11 31 31 7z m55 2 c8
-21 -6 -41 -17 -24 -12 19 -11 39 1 39 6 0 13 -7 16 -15z m581 -82 c-3 -10 -5
-2 -5 17 0 19 2 27 5 18 2 -10 2 -26 0 -35z m-2283 -309 c21 -8 20 -54 -1 -70
-14 -9 -19 -31 -21 -94 -5 -107 -25 -103 -29 6 -2 43 -8 91 -14 107 -18 43 16
70 65 51z m2028 -88 c15 -1 30 -5 34 -9 4 -4 14 -7 23 -7 20 0 137 -99 163
-137 10 -15 39 -70 64 -122 41 -85 45 -99 38 -135 -5 -21 -15 -41 -23 -44 -11
-4 -12 0 -6 14 17 40 18 77 3 88 -8 6 -21 29 -28 51 -6 22 -25 56 -40 75 -15
19 -30 45 -34 56 -6 19 -87 84 -105 84 -5 0 -11 9 -14 21 -3 12 -10 18 -15 15
-5 -3 -15 0 -21 8 -6 7 -32 19 -56 26 -25 7 -45 17 -45 22 0 6 8 7 18 3 9 -5
29 -9 44 -9z m-1867 -43 c-4 -10 -10 -26 -12 -35 -3 -11 -15 -18 -29 -18 -37
0 -30 35 11 58 29 16 38 15 30 -5z m1505 -203 c40 -22 26 -26 -32 -8 -26 8
-35 14 -26 20 17 10 17 10 58 -12z m-1798 -52 c0 -18 1 -40 0 -48 0 -11 3 -10
14 4 7 11 17 16 21 13 10 -11 -10 -60 -26 -65 -8 -3 -11 0 -7 7 4 6 1 11 -8
11 -23 0 -28 16 -20 65 7 52 23 60 26 13z m1763 2 c-3 -5 -13 -10 -21 -10 -8
0 -12 5 -9 10 3 6 13 10 21 10 8 0 12 -4 9 -10z m-1449 -125 c33 -14 69 -68
57 -88 -2 -4 -6 -25 -8 -47 -5 -50 -26 -94 -73 -147 l-37 -42 -2 27 c-4 57
-27 107 -51 110 -19 3 -23 0 -19 -15 3 -10 11 -45 18 -77 9 -43 18 -60 32 -64
16 -4 18 -11 12 -41 -12 -63 -21 -69 -43 -25 -14 28 -21 70 -26 149 -8 139 7
199 62 244 43 36 34 35 78 16z m-1570 -37 c-2 -29 -9 -42 -20 -44 -9 -1 -16 2
-16 8 0 12 31 78 36 78 2 0 2 -19 0 -42z m1788 -15 c26 -41 45 -113 29 -113
-6 0 -15 18 -22 40 -13 43 -30 52 -38 20 -3 -11 -9 -20 -13 -20 -4 0 -10 9
-13 20 -3 14 0 20 10 20 15 0 15 12 -2 53 -14 33 24 18 49 -20z m-401 -97 c-2
-95 -6 -123 -20 -138 -21 -24 -32 -23 -37 5 -3 12 -17 71 -31 131 -29 124 -28
128 45 124 l45 -3 -2 -119z m-1403 52 c0 -4 -4 -8 -10 -8 -5 0 -7 -7 -4 -15 4
-9 0 -15 -10 -15 -11 0 -15 8 -14 24 2 17 8 24 20 23 10 -1 18 -5 18 -9z m592
-55 c26 -23 11 -80 -18 -69 -9 3 -14 -1 -15 -12 0 -9 -6 2 -14 26 -7 23 -18
49 -24 56 -25 30 37 28 71 -1z m-156 -11 c-17 -16 -18 -16 -5 5 7 12 15 20 18
17 3 -2 -3 -12 -13 -22z m-449 -9 c-15 -16 -17 -16 -17 -1 0 9 6 18 13 21 20
7 22 -2 4 -20z m-59 -43 c22 -21 29 -40 14 -40 -5 0 -21 14 -37 30 -33 35 -13
43 23 10z m92 -6 c0 -16 -4 -23 -11 -18 -7 4 -10 -1 -7 -12 2 -11 13 -20 26
-22 23 -4 30 -18 10 -24 -6 -2 -12 -15 -13 -29 -1 -13 -4 -42 -8 -64 -6 -38
-5 -41 28 -62 23 -15 36 -18 39 -10 3 7 4 3 3 -8 -1 -14 3 -19 16 -17 9 2 17
-3 17 -9 0 -7 10 -23 22 -36 18 -19 20 -26 9 -32 -8 -5 -11 -17 -6 -30 4 -12
2 -21 -4 -21 -6 0 -11 4 -11 8 0 12 -62 104 -92 135 -14 15 -29 24 -32 19 -10
-17 2 -158 18 -202 17 -49 21 -117 7 -139 -13 -20 -65 5 -78 38 -20 49 -24 91
-8 91 8 0 15 4 15 10 0 5 -6 7 -13 4 -31 -11 -53 65 -41 142 5 38 10 45 25 41
12 -3 19 0 19 8 0 7 5 15 10 17 6 2 12 13 13 25 0 12 4 20 8 17 19 -11 15 28
-7 59 -15 22 -21 42 -17 53 4 11 3 15 -5 10 -6 -3 -13 -2 -16 3 -6 8 17 23 39
25 5 1 16 13 23 29 16 34 22 34 22 1z m-582 -21 c19 -21 32 -33 28 -26 -3 6
-2 14 4 18 18 11 11 -21 -10 -45 -18 -21 -22 -22 -19 -4 1 3 -10 18 -24 32
-28 31 -41 62 -26 62 6 0 27 -17 47 -37z m-218 -8 c0 -5 -5 -3 -10 5 -5 8 -10
20 -10 25 0 6 5 3 10 -5 5 -8 10 -19 10 -25z m290 15 c0 -5 -2 -10 -4 -10 -3
0 -8 5 -11 10 -3 6 -1 10 4 10 6 0 11 -4 11 -10z m3411 -21 c21 -21 35 -79 20
-79 -5 0 -14 -13 -19 -30 l-11 -29 -48 15 c-26 9 -55 18 -63 21 -12 4 -11 8 7
22 12 10 23 31 25 47 2 18 12 33 28 41 33 17 37 16 61 -8z m-3631 -9 c0 -5 -5
-10 -11 -10 -5 0 -7 5 -4 10 3 6 8 10 11 10 2 0 4 -4 4 -10z m217 -12 c-3 -8
-6 -5 -6 6 -1 11 2 17 5 13 3 -3 4 -12 1 -19z m1809 -5 c27 -29 27 -46 0 -51
-25 -5 -46 17 -46 49 0 36 14 37 46 2z m-280 -10 c-3 -8 -6 -22 -6 -31 0 -13
-3 -12 -15 4 -15 19 -15 19 -33 -2 -36 -43 -65 -55 -100 -42 -18 7 -32 17 -32
23 1 28 81 60 158 62 26 1 32 -2 28 -14z m2855 0 c13 -15 12 -15 -8 -4 -24 12
-29 21 -14 21 5 0 15 -7 22 -17z m-4452 -47 c-11 -11 -47 6 -42 20 3 8 0 14
-7 14 -6 0 -8 5 -4 11 4 7 16 2 32 -15 14 -14 24 -28 21 -30z m94 -12 c4 9 11
16 16 16 5 0 2 -14 -6 -31 l-16 -31 -22 28 c-13 16 -20 36 -17 47 4 17 7 15
22 -13 13 -26 18 -29 23 -16z m4417 -4 c27 -52 12 -52 -17 0 -12 22 -17 40
-12 40 5 0 18 -18 29 -40z m560 25 c0 -8 -2 -15 -4 -15 -2 0 -6 7 -10 15 -3 8
-1 15 4 15 6 0 10 -7 10 -15z m-3397 -17 c9 -7 25 -37 37 -66 17 -46 18 -56 7
-73 -12 -16 -16 -17 -26 -6 -6 8 -9 16 -6 18 8 9 15 69 8 69 -5 0 -14 -9 -21
-20 -7 -12 -8 -20 -2 -20 5 0 10 -5 10 -12 0 -6 -9 -3 -20 7 -16 14 -17 20 -8
27 10 6 10 10 -1 17 -8 5 -11 16 -8 25 3 8 2 18 -4 21 -10 7 -3 25 10 25 4 0
15 -6 24 -12z m-268 -31 c28 -46 28 -47 11 -47 -9 0 -22 11 -28 25 -6 14 -15
25 -20 25 -4 0 -8 7 -8 15 0 26 24 16 45 -18z m3678 8 c0 -6 -7 -11 -16 -13
-12 -3 -15 1 -11 13 7 17 25 17 27 0z m-4080 -77 c-26 -55 -30 -59 -29 -31 1
17 4 29 9 26 4 -2 7 5 7 16 0 12 4 21 9 21 5 0 13 9 16 21 4 11 9 18 12 15 3
-3 -8 -33 -24 -68z m3982 62 c3 -6 -1 -7 -9 -4 -18 7 -21 14 -7 14 6 0 13 -4
16 -10z m-5315 -10 c0 -5 -4 -10 -10 -10 -5 0 -10 5 -10 10 0 6 5 10 10 10 6
0 10 -4 10 -10z m5390 -35 c8 -19 24 -45 37 -57 24 -22 32 -63 11 -56 -7 3
-21 20 -31 39 -11 19 -23 37 -28 40 -11 6 -19 69 -10 69 4 0 13 -16 21 -35z
m-3790 5 c20 0 47 -36 50 -66 5 -40 0 -64 -13 -64 -18 0 -67 98 -66 130 0 14
3 19 6 13 2 -7 13 -13 23 -13z m3752 -41 c17 -17 17 -18 -2 -24 -11 -4 -20
-13 -20 -21 0 -18 -4 -18 -39 1 -31 15 -45 40 -34 57 3 6 2 8 -4 5 -6 -4 -19
0 -29 8 -17 13 -18 14 -1 15 9 0 17 -3 17 -7 0 -5 11 -9 24 -9 18 -1 23 2 19
13 -5 13 -1 12 23 -3 16 -10 37 -26 46 -35z m-3406 -54 c-4 -11 0 -15 11 -13
11 2 18 -4 20 -17 l3 -20 -9 20 c-9 19 -10 19 -10 -2 -1 -26 -13 -30 -29 -10
-13 15 -5 57 10 57 6 0 7 -7 4 -15z m3374 -40 c0 -8 -2 -15 -4 -15 -2 0 -6 7
-10 15 -3 8 -1 15 4 15 6 0 10 -7 10 -15z m-4030 -25 c0 -28 -19 -44 -21 -17
0 10 -2 10 -6 0 -7 -20 -23 -15 -16 5 17 48 43 55 43 12z m1522 4 c-3 -17 -7
-22 -12 -13 -9 13 -2 39 10 39 4 0 5 -12 2 -26z m-1588 10 c9 -3 14 -10 11
-14 -6 -10 -45 -1 -45 11 0 10 12 11 34 3z m926 -40 c0 -8 -4 -14 -10 -14 -5
0 -10 9 -10 21 0 11 5 17 10 14 6 -3 10 -13 10 -21z m707 4 c-3 -8 -6 -5 -6 6
-1 11 2 17 5 13 3 -3 4 -12 1 -19z m20 0 c-3 -8 -6 -5 -6 6 -1 11 2 17 5 13 3
-3 4 -12 1 -19z m-692 -8 c3 -5 -1 -10 -10 -10 -9 0 -13 5 -10 10 3 6 8 10 10
10 2 0 7 -4 10 -10z m40 0 c3 -5 -1 -10 -10 -10 -9 0 -13 5 -10 10 3 6 8 10
10 10 2 0 7 -4 10 -10z m-1518 -43 c14 -9 23 -57 11 -57 -6 0 -12 9 -15 21 -3
12 -11 18 -19 15 -8 -3 -14 -1 -14 4 0 20 -31 9 -42 -15 -6 -14 -17 -25 -25
-25 -18 0 -17 7 6 39 15 21 27 27 54 26 18 -1 38 -5 44 -8z m1841 -14 c18 -3
37 -14 43 -25 6 -12 9 -120 7 -298 -3 -266 -4 -280 -24 -300 -19 -20 -37 -21
-395 -30 -664 -16 -1144 -23 -1166 -16 -11 4 -26 19 -31 34 -7 16 -12 141 -13
307 -2 330 -3 309 18 331 16 16 66 17 773 10 415 -4 770 -9 788 -13z m244 -63
c37 -11 55 -26 44 -37 -4 -4 -49 -8 -101 -9 -93 -3 -95 -2 -95 20 0 12 3 26 7
29 10 11 103 8 145 -3z m-2208 -99 c8 -15 30 -34 48 -41 45 -18 44 -17 15 -41
-18 -13 -27 -30 -27 -49 l0 -28 -39 19 c-46 22 -54 38 -46 98 11 81 24 92 49
42z m5686 -183 c-1 -13 -30 -58 -30 -46 0 6 -36 -2 -73 -17 -16 -7 -18 -4 -15
16 2 19 14 28 53 41 62 21 65 21 65 6z m-5602 -10 c6 -6 12 -17 12 -26 0 -12
-8 -13 -41 -8 -36 6 -69 25 -69 40 0 9 85 4 98 -6z m-609 -95 c-1 -24 -17 -71
-18 -55 -1 6 -12 12 -25 12 -26 0 -29 17 -7 44 18 22 51 21 50 -1z m6035 -47
c15 -56 14 -60 -10 -124 -13 -36 -26 -67 -28 -69 -6 -7 -36 95 -36 124 0 23
50 137 57 129 1 -1 9 -28 17 -60z m-1255 -143 c-5 -42 -7 -37 -8 35 -1 58 -5
82 -13 82 -10 0 -10 2 -1 8 7 4 11 19 8 31 -2 13 -1 29 3 35 10 16 19 -135 11
-191z m-4817 115 c-6 -6 -15 -8 -19 -4 -4 4 -1 11 7 16 19 12 27 3 12 -12z
m5043 -124 l20 -41 27 20 c34 25 162 32 153 7 -3 -8 3 -5 14 7 17 20 31 21 31
2 0 -5 -34 -34 -75 -65 -53 -40 -73 -60 -65 -68 5 -5 10 -33 10 -61 0 -39 -5
-55 -21 -69 -18 -15 -23 -15 -30 -5 -5 8 -9 20 -9 27 0 7 -5 10 -10 7 -8 -5
-7 -11 1 -21 14 -17 5 -44 -15 -44 -26 0 -29 -55 -7 -115 21 -57 26 -134 11
-170 -6 -14 -8 1 -8 48 0 78 -17 112 -61 122 -32 7 -51 35 -24 35 15 0 15 2 0
18 -12 13 -17 37 -17 80 0 58 -1 62 -23 62 -13 0 -29 -6 -36 -12 -11 -11 -12
-10 -7 2 3 8 9 22 12 31 3 9 17 22 30 29 17 10 24 22 24 42 0 17 4 27 10 23 6
-3 10 1 10 9 0 9 4 16 9 16 14 0 20 39 7 43 -8 3 -7 11 3 27 11 20 11 24 -3
32 -21 12 -20 30 2 26 9 -2 26 -22 37 -44z m-1435 16 c0 -5 -5 -10 -11 -10 -5
0 -7 5 -4 10 3 6 8 10 11 10 2 0 4 -4 4 -10z m-3058 -52 c-7 -7 -12 -8 -12 -2
0 14 12 26 19 19 2 -3 -1 -11 -7 -17z m-24 -5 c2 -9 -8 -13 -35 -12 -21 0 -32
3 -25 6 6 2 9 9 6 15 -4 6 5 8 22 6 15 -2 29 -9 32 -15z m1715 0 c-29 -2 -77
-2 -105 0 -29 2 -6 3 52 3 58 0 81 -1 53 -3z m3567 -23 c-6 -11 -20 -25 -32
-31 -18 -9 -16 -5 7 19 35 37 39 39 25 12z m-3509 -57 c-35 -66 -43 -73 -35
-28 3 22 7 46 7 53 0 6 11 12 24 12 l23 0 -19 -37z m335 -21 c-4 -3 -12 0 -19
7 -9 9 -9 14 3 21 11 7 16 5 18 -6 2 -9 1 -18 -2 -22z m-2436 -91 c41 -27 91
-65 109 -85 19 -20 42 -36 51 -36 21 0 52 -33 48 -51 -2 -8 -11 -17 -21 -21
-10 -4 -15 -12 -12 -18 3 -5 1 -10 -4 -10 -6 0 -11 5 -11 10 0 6 -7 10 -15 10
-8 0 -15 7 -15 15 0 8 -9 19 -20 25 -11 6 -20 18 -20 26 0 16 -97 124 -112
124 -12 0 -78 44 -78 53 0 16 29 4 100 -42z m2440 28 c0 -14 -17 -10 -23 5 -4
10 -1 13 9 9 7 -3 14 -9 14 -14z m-2676 -75 c3 -8 2 -12 -4 -9 -6 3 -10 10
-10 16 0 14 7 11 14 -7z m1172 -346 c-4 -22 -15 -57 -26 -77 -10 -21 -22 -64
-25 -97 -7 -59 -6 -59 32 -95 23 -23 52 -39 75 -43 44 -8 102 -68 155 -163 64
-115 27 -141 -69 -50 -27 26 -32 21 -9 -9 12 -15 21 -31 21 -36 0 -5 9 -21 19
-36 11 -15 18 -38 17 -52 -2 -14 -4 -31 -5 -37 -2 -21 -40 -15 -59 9 -18 23
-35 40 -75 76 -19 17 -32 21 -51 16 -39 -9 -45 -24 -39 -93 l6 -63 63 -41 c45
-29 67 -51 74 -72 28 -87 42 -193 46 -350 l5 -170 -35 -109 c-35 -107 -85
-209 -125 -255 -12 -13 -21 -21 -21 -18 0 15 35 93 47 105 7 7 13 26 13 42 0
16 4 31 9 35 15 9 23 62 12 82 -6 10 -17 102 -26 204 -8 102 -21 208 -29 235
-17 60 -40 121 -48 130 -12 11 -28 -68 -18 -87 6 -10 10 -33 10 -52 0 -19 7
-49 16 -67 25 -48 13 -218 -26 -388 -31 -139 -47 -178 -100 -251 -25 -34 -34
-41 -42 -30 -8 11 -9 10 -4 -4 3 -11 -7 -36 -29 -66 -19 -26 -32 -51 -29 -54
14 -13 -32 -57 -85 -81 -65 -29 -142 -37 -122 -12 9 11 9 16 -2 23 -39 23 -10
84 81 171 33 32 57 38 33 8 -19 -22 -3 -40 17 -20 30 31 44 66 30 76 -10 6
-10 10 2 18 12 8 11 10 -5 10 -12 0 -25 -4 -30 -8 -6 -5 -30 -15 -55 -22 -25
-8 -50 -17 -57 -22 -25 -19 -158 -53 -220 -57 -48 -2 -51 -1 -73 33 -23 39
-29 103 -12 147 11 28 0 49 -24 49 -19 0 -44 45 -33 61 13 20 11 42 -3 33 -8
-5 -9 -2 -4 12 17 42 17 52 -4 71 -25 24 -42 112 -27 140 17 32 50 64 129 124
72 55 108 72 108 50 0 -5 -5 -11 -12 -13 -20 -7 22 -57 56 -67 38 -10 49 -5
41 19 -4 11 4 35 19 59 14 22 21 43 16 46 -5 3 -7 12 -3 20 3 10 -1 15 -14 15
-19 0 -40 14 -89 59 -17 16 -19 27 -15 68 6 44 8 48 31 46 14 -2 59 -5 101 -7
42 -2 82 -7 89 -11 10 -6 12 -4 7 7 -7 19 11 38 30 31 7 -3 21 1 31 10 9 8 26
17 36 18 35 7 29 28 -11 37 -21 5 -57 14 -80 19 -24 6 -43 7 -43 4 0 -3 -4
-12 -9 -19 -7 -11 -15 -11 -45 2 -40 17 -96 5 -96 -20 0 -8 -4 -14 -10 -14 -5
0 -10 5 -10 10 0 6 -7 10 -15 10 -23 0 -36 44 -24 80 13 35 46 47 87 32 32
-12 122 -24 122 -16 0 3 -13 10 -30 15 -16 6 -30 15 -30 20 0 8 23 14 44 10
30 -6 117 -1 131 6 15 9 13 13 -15 36 -17 15 -52 32 -76 38 -51 13 -56 31 -14
49 17 7 30 16 30 21 0 5 11 9 25 9 16 0 25 6 25 15 0 8 -6 15 -14 15 -8 0 -16
6 -18 12 -6 17 13 81 26 90 12 8 -1 13 -50 22 -18 3 -84 30 -148 61 -101 48
-118 60 -135 93 -18 36 -45 141 -38 148 2 2 13 -27 26 -64 30 -92 54 -130 88
-138 68 -15 125 -37 163 -65 26 -19 48 -28 60 -24 10 3 46 30 80 60 63 57 78
63 97 44 9 -9 10 -7 6 10 -4 17 1 24 30 36 87 36 157 129 157 209 1 42 3 48
11 32 7 -10 8 -35 5 -58z m-776 -18 c0 -5 -5 -10 -11 -10 -5 0 -7 5 -4 10 3 6
8 10 11 10 2 0 4 -4 4 -10z m-267 -497 c-7 -2 -19 -2 -25 0 -7 3 -2 5 12 5 14
0 19 -2 13 -5z m347 -130 c22 -10 40 -21 40 -26 0 -9 -69 -116 -87 -135 -11
-11 -13 -7 -13 20 0 18 -7 43 -15 56 -13 18 -14 29 -5 62 12 45 22 48 80 23z
m-164 -544 c-30 -104 -32 -174 -11 -334 8 -60 15 -139 15 -175 l0 -65 -36 75
c-49 101 -74 191 -74 271 0 53 8 88 40 174 23 59 51 126 63 149 19 36 22 38
25 18 2 -13 -8 -64 -22 -113z m5762 -13 c-1 -15 -10 -27 -22 -30 -16 -4 -17
-7 -6 -20 22 -27 -3 -17 -44 17 -48 41 -41 57 24 57 47 0 50 -2 48 -24z
m-5548 -729 c0 -2 -18 -19 -41 -37 -33 -26 -43 -30 -50 -19 -14 23 -10 35 14
47 20 10 77 16 77 9z"/>
<path d="M2181 3633 c-66 -67 -55 -128 39 -216 90 -86 99 -90 134 -67 49 31
146 132 152 157 11 42 -3 106 -26 125 -31 25 -91 23 -124 -3 l-27 -21 -23 21
c-13 12 -39 24 -59 28 -31 5 -40 1 -66 -24z"/>
<path d="M1186 3589 c-3 -17 -6 -49 -6 -71 0 -40 -33 -118 -50 -118 -6 0 -10
-16 -10 -36 0 -42 23 -43 28 0 l3 27 97 -3 97 -3 3 -27 c5 -42 32 -36 32 6 0
26 -5 36 -20 41 -18 6 -20 15 -20 111 l0 104 -74 0 -73 0 -7 -31z m132 -83 c2
-65 -1 -92 -10 -98 -17 -10 -115 -10 -122 0 -3 5 1 26 9 48 8 21 14 63 15 92
l0 53 53 -3 52 -3 3 -89z"/>
<path d="M1442 3537 c-26 -28 -30 -92 -7 -124 18 -26 63 -37 98 -24 57 22 73
122 24 156 -33 23 -90 19 -115 -8z m100 -14 c11 -10 18 -30 18 -54 0 -80 -95
-94 -114 -17 -17 69 46 116 96 71z"/>
<path d="M1647 3553 c-4 -3 -7 -57 -7 -120 0 -94 3 -113 15 -113 11 0 15 11
15 40 0 38 1 39 26 30 55 -21 104 20 104 88 0 60 -63 102 -110 72 -9 -5 -19
-5 -26 0 -6 6 -14 7 -17 3z m111 -25 c7 -7 12 -31 12 -53 0 -55 -28 -83 -68
-69 -24 8 -27 15 -30 58 -2 27 -1 55 2 62 7 17 67 19 84 2z"/>
<path d="M1869 3540 c-18 -14 -20 -19 -8 -20 8 0 20 5 26 11 18 18 68 7 71
-17 3 -18 -3 -22 -40 -27 -38 -5 -78 -34 -78 -56 0 -23 30 -44 61 -43 19 1 46
2 62 2 27 1 27 2 27 65 0 52 -4 69 -20 85 -25 25 -71 26 -101 0z m89 -97 c-3
-25 -7 -28 -43 -28 -31 0 -41 4 -43 19 -5 24 14 36 56 36 30 0 33 -2 30 -27z"/>
<path d="M1046 3483 c-11 -11 -6 -23 9 -23 8 0 15 4 15 9 0 13 -16 22 -24 14z"/>
<path d="M5256 3095 c-11 -8 -15 -15 -9 -15 6 0 16 7 23 15 16 19 11 19 -14 0z"/>
<path d="M5195 3050 c-16 -11 -25 -20 -20 -20 10 0 64 39 55 40 -3 0 -18 -9
-35 -20z"/>
<path d="M961 2266 c-7 -8 -13 -22 -16 -32 -2 -11 -7 -28 -11 -39 -7 -16 -4
-16 18 5 26 26 42 66 28 75 -4 3 -13 -1 -19 -9z"/>
<path d="M1238 2053 c7 -3 16 -2 19 1 4 3 -2 6 -13 5 -11 0 -14 -3 -6 -6z"/>
<path d="M940 1746 c0 -9 5 -16 10 -16 6 0 10 4 10 9 0 6 -4 13 -10 16 -5 3
-10 -1 -10 -9z"/>
<path d="M1048 1192 c-20 -31 -48 -80 -63 -109 -26 -54 -57 -83 -86 -83 -9 0
-23 -7 -30 -16 -12 -15 -14 -15 -19 5 -3 12 -9 21 -15 19 -14 -4 -6 -42 12
-51 9 -6 13 -17 9 -32 -3 -13 -1 -27 4 -30 22 -13 134 74 125 97 -3 7 5 18 17
23 12 6 23 17 24 25 2 8 19 59 38 113 19 53 31 97 28 97 -4 0 -24 -26 -44 -58z"/>
<path d="M886 1027 c3 -10 9 -15 12 -12 3 3 0 11 -7 18 -10 9 -11 8 -5 -6z"/>
<path d="M810 649 c0 -5 5 -7 10 -4 6 3 10 8 10 11 0 2 -4 4 -10 4 -5 0 -10
-5 -10 -11z"/>
<path d="M6030 1315 c7 -8 16 -15 20 -15 3 0 7 7 7 15 0 8 -9 15 -20 15 -16 0
-17 -3 -7 -15z"/>
<path d="M4425 6383 c2 -10 6 -33 9 -50 l6 -33 -70 0 c-38 0 -80 4 -94 10 -17
6 -27 6 -32 -1 -11 -18 11 -30 62 -35 27 -2 62 -5 78 -6 18 -2 31 -9 34 -20 2
-10 8 -15 13 -12 5 3 9 -2 9 -10 0 -32 18 -15 22 22 6 48 -13 152 -28 152 -7
0 -11 -8 -9 -17z"/>
<path d="M4467 6379 c4 -13 8 -18 11 -10 2 7 -1 18 -6 23 -8 8 -9 4 -5 -13z"/>
<path d="M5264 6204 c-18 -14 -18 -15 4 -4 12 6 22 13 22 15 0 8 -5 6 -26 -11z"/>
<path d="M4210 6200 c0 -5 5 -10 10 -10 6 0 10 5 10 10 0 6 -4 10 -10 10 -5 0
-10 -4 -10 -10z"/>
<path d="M4464 6176 c5 -20 1 -24 -25 -30 -17 -3 -54 -6 -82 -6 -67 0 -54 -10
19 -16 32 -2 63 -9 68 -15 8 -9 7 -10 -1 -5 -7 4 -13 2 -13 -3 0 -6 6 -11 13
-11 8 0 7 -4 -3 -10 -8 -5 -10 -10 -5 -11 6 0 1 -4 -10 -9 -18 -8 -17 -9 8 -9
15 -1 27 -5 27 -11 0 -6 -30 -10 -69 -10 -39 0 -73 5 -76 10 -10 16 -45 12
-45 -5 0 -19 31 -55 47 -55 7 0 13 -4 13 -10 0 -5 4 -10 9 -10 5 0 8 8 7 18
-1 13 7 17 32 18 29 1 34 -2 31 -22 -1 -12 25 -24 54 -24 24 0 27 4 28 38 1
20 0 42 -1 47 -11 43 -11 58 0 65 10 6 10 15 2 39 -6 17 -9 38 -6 46 4 10 0
15 -11 15 -13 0 -16 -6 -11 -24z"/>
<path d="M4250 6180 c0 -5 7 -10 15 -10 8 0 15 5 15 10 0 6 -7 10 -15 10 -8 0
-15 -4 -15 -10z"/>
<path d="M4325 6180 c3 -5 24 -10 46 -10 24 0 38 4 34 10 -3 6 -24 10 -46 10
-24 0 -38 -4 -34 -10z"/>
<path d="M4273 5906 c2 -7 30 -10 78 -7 112 5 121 21 11 19 -62 -1 -91 -5 -89
-12z"/>
<path d="M4296 5811 c-4 -7 -5 -15 -2 -18 9 -9 19 4 14 18 -4 11 -6 11 -12 0z"/>
<path d="M6380 5391 c-10 -4 -16 -22 -17 -56 -1 -28 -16 -92 -33 -142 -29 -87
-30 -101 -37 -316 l-6 -225 24 -7 c80 -23 90 -36 68 -92 -7 -15 -13 -53 -14
-83 -4 -95 -25 -421 -34 -520 -10 -105 -7 -120 19 -120 53 0 50 -46 50 725 0
511 -3 716 -11 721 -8 5 -8 9 1 14 7 4 10 27 8 57 -2 40 -6 49 -18 44z"/>
<path d="M4452 4345 c0 -16 2 -22 5 -12 2 9 2 23 0 30 -3 6 -5 -1 -5 -18z"/>
<path d="M4595 4199 c-11 -17 1 -21 15 -4 8 9 8 15 2 15 -6 0 -14 -5 -17 -11z"/>
<path d="M5800 3946 c0 -14 5 -28 10 -31 6 -4 10 7 10 24 0 17 -4 31 -10 31
-5 0 -10 -11 -10 -24z"/>
<path d="M5762 3877 c-1 -23 -3 -55 -5 -71 -2 -32 17 -46 27 -20 8 20 -3 134
-13 134 -3 0 -7 -19 -9 -43z"/>
<path d="M3947 3793 c-5 -27 -2 -41 7 -32 11 10 17 59 8 59 -5 0 -12 -12 -15
-27z"/>
<path d="M5709 3733 c-26 -30 -47 -86 -55 -141 l-7 -52 38 0 c25 0 47 8 69 26
42 36 48 48 37 78 -9 21 -7 25 12 28 12 2 22 10 22 18 0 8 4 20 8 27 7 11 -26
22 -63 21 -8 0 -22 3 -31 6 -9 4 -21 -1 -30 -11z"/>
<path d="M5905 3670 c-3 -5 -2 -10 4 -10 5 0 13 5 16 10 3 6 2 10 -4 10 -5 0
-13 -4 -16 -10z"/>
<path d="M3903 3574 c-3 -9 -1 -19 4 -23 6 -3 16 -23 22 -44 15 -43 -1 -102
-52 -197 -37 -69 -22 -55 32 29 23 35 46 83 52 105 5 23 15 54 21 69 12 32 4
45 -45 65 -23 10 -29 9 -34 -4z"/>
<path d="M1837 2899 c7 -7 15 -10 18 -7 3 3 -2 9 -12 12 -14 6 -15 5 -6 -5z"/>
<path d="M2103 2679 c0 -166 -7 -195 -38 -169 -8 7 -15 23 -15 36 0 64 -34 92
-71 58 -21 -19 -46 -13 -56 13 -4 10 -13 24 -20 31 -11 11 -13 3 -13 -47 0
-33 5 -63 10 -66 6 -3 10 -15 10 -26 0 -11 7 -31 16 -44 9 -13 13 -28 10 -33
-3 -5 4 -16 15 -25 12 -10 19 -29 19 -50 0 -18 5 -38 11 -44 7 -7 13 -38 15
-70 4 -59 7 -76 17 -103 3 -8 8 -34 10 -57 3 -23 12 -56 21 -74 16 -32 16 -33
-15 -65 -17 -18 -28 -37 -25 -42 3 -6 2 -21 -3 -34 -9 -22 -10 -22 -16 9 -4
18 -11 30 -16 27 -15 -9 -4 -43 20 -65 15 -14 20 -27 15 -38 -4 -9 -7 -27 -6
-41 3 -74 1 -94 -10 -101 -9 -6 -9 -11 1 -23 7 -9 10 -23 7 -32 -4 -9 -1 -22
5 -30 6 -7 12 -37 15 -66 8 -99 12 -153 18 -233 3 -44 9 -114 12 -155 3 -41 7
-147 9 -235 2 -88 7 -187 12 -220 5 -33 8 -88 7 -122 -1 -35 2 -61 6 -58 3 2
1 -17 -5 -43 -8 -29 -9 -51 -3 -58 5 -7 8 -16 7 -20 -1 -5 -1 -11 0 -14 1 -3
3 -57 6 -120 2 -63 9 -139 15 -169 5 -29 10 -55 10 -57 0 -2 268 -4 596 -4
562 0 595 1 590 18 -3 9 -8 40 -11 67 -3 28 -14 84 -25 125 -32 129 -40 169
-40 199 0 33 -19 91 -30 91 -4 0 -5 12 -2 26 3 16 -1 29 -8 34 -11 7 -11 11
-1 23 7 9 8 18 3 21 -5 3 -12 27 -16 53 -3 26 -10 61 -15 78 -21 68 -34 199
-36 350 -1 88 -6 171 -12 185 -6 14 -9 93 -8 184 l2 159 -27 15 c-33 19 -44
71 -30 142 8 44 7 186 -1 195 -15 14 -198 25 -246 14 -32 -7 -169 4 -179 14
-10 10 -11 373 -1 415 13 56 -6 130 -28 112 -8 -7 -19 -9 -25 -5 -9 6 -14 -16
-12 -54 1 -33 -18 -60 -53 -71 -36 -12 -61 -6 -36 9 10 7 10 9 -2 14 -8 3 -18
19 -22 36 -4 17 -11 33 -16 36 -5 4 -9 17 -9 30 0 13 -5 27 -11 31 -8 5 -9 -6
-5 -37 4 -25 4 -39 -1 -32 -11 15 -59 22 -56 8 3 -20 -46 -15 -57 5 -6 11 -17
20 -25 20 -7 0 -17 9 -20 20 -3 11 -12 26 -19 33 -14 14 -72 175 -81 226 -3
19 -8 38 -11 43 -16 26 -21 -9 -21 -153z m697 -713 c0 -11 -19 -15 -25 -6 -3
5 1 10 9 10 9 0 16 -2 16 -4z m142 -173 c10 -9 18 -28 19 -42 0 -14 4 -35 9
-46 6 -17 9 -15 15 17 4 20 4 46 0 57 -3 12 -2 21 3 21 10 0 22 -135 14 -157
-6 -17 -40 -16 -58 1 -8 8 -14 30 -14 48 0 18 -5 40 -10 48 -8 12 -10 9 -10
-13 0 -16 -4 -26 -9 -22 -5 3 -12 -3 -14 -12 -3 -10 -5 -4 -6 14 0 17 -4 38
-7 46 -5 14 27 57 43 57 3 0 15 -7 25 -17z"/>
<path d="M3467 2833 c-3 -5 -2 -53 2 -108 4 -55 6 -120 5 -145 -1 -25 -5 -149
-9 -276 -6 -207 -5 -233 10 -248 9 -9 11 -16 5 -16 -6 0 -9 -4 -6 -9 4 -5 -12
-12 -34 -16 -22 -4 -38 -11 -37 -17 1 -6 -11 -14 -26 -19 -22 -6 -33 -3 -48
12 -27 27 -31 24 -27 -23 2 -24 8 -42 13 -42 15 2 39 -37 41 -66 2 -14 3 -28
3 -32 1 -5 6 -8 12 -8 8 0 8 5 -1 15 -14 17 -8 19 18 6 9 -5 29 -14 45 -20 26
-10 27 -13 27 -86 0 -60 -3 -75 -15 -75 -9 0 -15 9 -15 24 0 19 -4 22 -25 18
-24 -4 -36 -32 -15 -32 12 0 13 -47 1 -54 -9 -6 -8 -282 1 -378 3 -26 10 -53
17 -62 10 -11 10 -20 1 -36 -9 -16 -9 -25 -1 -33 6 -6 11 -32 11 -57 0 -60 20
-160 32 -160 5 0 6 -5 2 -11 -10 -17 -6 -91 5 -102 6 -6 11 -20 11 -32 0 -76
90 -324 118 -325 6 0 12 -4 12 -9 0 -5 -6 -12 -12 -14 -10 -4 -10 -6 0 -6 6
-1 12 -8 12 -17 0 -9 11 -25 25 -36 18 -14 24 -26 20 -39 -4 -12 1 -22 14 -31
12 -7 21 -18 21 -25 0 -6 14 -38 30 -70 17 -31 30 -69 30 -82 0 -14 5 -40 12
-58 l12 -33 323 0 323 0 -31 83 c-36 99 -61 173 -82 247 -43 153 -81 267 -93
281 -8 8 -14 28 -14 43 0 27 -16 72 -46 128 -8 15 -23 65 -34 110 -30 131 -36
151 -54 185 -9 18 -15 36 -14 40 1 4 -3 26 -10 48 -26 93 -52 203 -52 221 0
11 -5 25 -12 32 -6 6 -12 22 -13 34 -1 13 -6 32 -10 42 -6 13 -5 17 2 13 8 -5
8 5 3 31 -10 44 -25 191 -22 212 1 8 5 46 10 84 10 82 1 110 -43 125 -28 10
-27 10 15 6 25 -2 52 0 60 5 11 7 1 10 -31 10 -25 0 -60 5 -77 11 -33 11 -42
35 -47 118 -1 20 -10 66 -20 104 -14 52 -28 78 -61 114 -24 26 -44 48 -44 50
0 2 -11 20 -24 41 -22 35 -33 70 -57 182 -20 96 -59 178 -99 210 -21 17 -41
27 -43 23z m-87 -882 c0 -6 -4 -13 -10 -16 -5 -3 -10 1 -10 9 0 9 5 16 10 16
6 0 10 -4 10 -9z"/>
<path d="M1820 2781 c0 -24 18 -37 31 -24 13 13 1 43 -17 43 -8 0 -14 -9 -14
-19z"/>
<path d="M4140 2266 c0 -14 5 -28 10 -31 6 -4 10 7 10 24 0 17 -4 31 -10 31
-5 0 -10 -11 -10 -24z"/>
<path d="M4281 2192 c-15 -28 -29 -124 -24 -164 3 -21 15 -48 28 -62 13 -14
20 -27 18 -30 -3 -3 -1 -12 6 -20 10 -11 2 -13 -46 -11 -87 4 -101 -18 -63
-97 11 -23 20 -47 20 -54 0 -7 6 -14 13 -16 9 -4 13 -53 14 -194 2 -104 7
-200 13 -214 5 -14 14 -83 20 -153 5 -71 13 -133 16 -139 9 -14 26 -247 24
-321 -1 -32 3 -64 8 -70 8 -11 21 -84 27 -156 2 -25 25 -43 25 -21 0 7 7 10
15 6 13 -5 15 0 10 28 -6 27 -3 34 12 38 13 3 19 16 21 39 2 18 7 38 12 43 6
6 10 23 10 40 0 16 6 57 14 90 8 34 20 102 26 151 7 50 17 99 22 109 6 10 12
39 15 64 3 25 9 57 15 71 13 32 35 138 53 256 16 108 23 149 35 194 10 37 8
240 -3 257 -4 6 -34 14 -67 18 -37 4 -60 12 -60 19 0 7 -12 18 -27 25 -47 21
-76 40 -85 55 -4 8 -12 47 -18 87 -7 52 -17 81 -35 102 -14 16 -25 34 -25 39
0 16 -29 10 -39 -9z"/>
<path d="M3145 1957 c-11 -15 -13 -16 -18 -2 -7 16 -57 21 -57 6 0 -22 13 -41
29 -41 10 0 28 -10 41 -22 16 -15 25 -18 28 -10 4 14 32 16 32 3 0 -5 -5 -12
-10 -14 -6 -3 -5 -4 2 -3 7 2 13 10 12 19 0 10 -1 32 -2 51 -2 29 -6 34 -23
33 -12 -1 -27 -10 -34 -20z"/>
<path d="M4706 1795 c-17 -47 -42 -220 -56 -395 -6 -69 -15 -150 -21 -180 -6
-30 -12 -68 -14 -85 -2 -16 -13 -75 -25 -130 -11 -55 -30 -149 -40 -210 -29
-168 -77 -389 -107 -499 l-27 -99 34 -98 34 -99 168 0 c145 0 167 2 162 15 -4
8 -1 15 5 15 6 0 11 -8 12 -17 0 -13 3 -11 10 7 10 25 3 93 -12 120 -7 12 -9
11 -9 -5 -1 -38 -18 8 -25 66 -6 51 -5 53 9 29 15 -25 15 -25 16 18 0 24 3 41
8 39 4 -3 32 -8 62 -12 l55 -7 -34 26 c-19 14 -40 26 -47 26 -20 0 -70 52 -84
88 -11 28 -14 30 -25 16 -10 -14 -14 -8 -28 42 -9 33 -21 90 -26 129 -6 38
-16 74 -23 80 -7 5 -13 28 -13 50 -1 22 -4 76 -9 120 -5 60 -5 76 4 65 9 -12
10 -2 6 40 -17 165 -17 207 0 214 13 5 15 18 12 65 -2 33 0 57 4 55 4 -3 8 -4
8 -2 0 2 7 35 16 73 9 39 22 108 30 155 17 106 29 171 44 233 10 40 9 52 -4
72 -24 36 -53 28 -70 -20z"/>
<path d="M3397 1773 c-12 -11 -8 -23 8 -23 8 0 15 -8 15 -17 0 -15 2 -16 10
-3 16 25 12 50 -8 50 -10 0 -22 -3 -25 -7z"/>
<path d="M4696 715 c4 -8 8 -15 10 -15 2 0 4 7 4 15 0 8 -4 15 -10 15 -5 0 -7
-7 -4 -15z"/>
<path d="M4719 612 c-2 -31 3 -66 13 -91 l11 -26 7 25 c10 36 0 98 -16 104 -8
3 -14 -1 -15 -12z"/>
</g>
</svg>
